<?xml version="1.0" standalone="no"?>
<!DOCTYPE svg PUBLIC "-//W3C//DTD SVG 20010904//EN"
 "http://www.w3.org/TR/2001/REC-SVG-20010904/DTD/svg10.dtd">
<svg version="1.0" xmlns="http://www.w3.org/2000/svg"
 width="225.000000pt" height="225.000000pt" viewBox="0 0 225.000000 225.000000"
 preserveAspectRatio="xMidYMid meet">
<metadata>
Created by potrace 1.11, written by Peter Selinger 2001-2013
</metadata>
<g transform="translate(0.000000,225.000000) scale(0.100000,-0.100000)"
fill="#000000" stroke="none">
<path d="M1293 1757 c-13 -6 -102 -118 -199 -247 -96 -129 -178 -236 -182
-238 -4 -1 -39 40 -77 92 -75 102 -100 122 -138 112 -17 -4 -115 -127 -351
-441 -180 -240 -332 -447 -338 -461 -15 -32 3 -71 38 -84 35 -14 2123 -14
2158 0 35 13 53 52 38 84 -16 37 -881 1186 -891 1186 -5 0 -15 2 -23 5 -7 3
-23 -1 -35 -8z m392 -657 l356 -475 -455 -3 c-250 -1 -662 -1 -916 0 l-461 3
252 337 253 336 78 -104 c83 -110 110 -128 151 -101 12 8 101 121 197 251 96
129 178 234 182 233 4 -1 167 -216 363 -477z"/>
</g>
</svg>
